# xmcd
#
# Track frame offsets: 
#        150
#        18516
#        34245
#        51763
#        68840
#        94001
#        111352
#        126398
#        138406
#        160372
#        177715
#        202406
#        218434
#        234988
#        246280
#
# Disc length: 4073 seconds
#
# Revision: 0
# Processed by: cddbd v1.5.2PL0 Copyright (c) Steve Scherf et al.
# Submitted via: ExactAudioCopy v1.1
#
DISCID=e20fe70f
DTITLE=Various Artist - Sounds Of The New West
DYEAR=2016
DGENRE=Americana
TTITLE0=Karl Blau - That's How I Got To Memphis
TTITLE1=Margo Price - Desperate and Depressed
TTITLE2=Jason Isbell - To a Band That I Loved
TTITLE3=Courtney Marie Andrews - How Quickly Your Heart Mends
TTITLE4=Doug Paisley (ft. Bonnie ‘Prince’ Billy) - Until I Found You
TTITLE5=Drive-By Truckers - Surrender Under Protest
TTITLE6=Hurray For The Riff Raff - Everybody Knows (for Trayvon Martin
TTITLE6=)
TTITLE7=The Deslondes - Tres Grand Serpent
TTITLE8=Nathan Bowles - Gadarene Fugue
TTITLE9=Joan Shelley - Cost Of The Cold
TTITLE10=Hiss Golden Messenger - Happy Day (Sister My Sister)
TTITLE11=Frazey  Ford - September Fields (Acoustic Version)
TTITLE12=Shovels and Rope - I Know
TTITLE13=Sturgill Simpson - Just Let Go
TTITLE14=William Tyler - Whole New Dude
EXTD=
EXTT0=
EXTT1=
EXTT2=
EXTT3=
EXTT4=
EXTT5=
EXTT6=
EXTT7=
EXTT8=
EXTT9=
EXTT10=
EXTT11=
EXTT12=
EXTT13=
EXTT14=
PLAYORDER=
